<svg width="28" height="32" viewBox="0 0 28 32" fill="none" xmlns="http://www.w3.org/2000/svg">
<path d="M10.2324 0.573305C8.8049 0.86132 7.74676 1.78797 7.2396 3.18422C7.07681 3.62876 7.07055 3.67885 7.05177 5.40693L7.02672 7.16632L5.26733 7.19137C3.53925 7.21015 3.48916 7.21641 3.04462 7.3792C2.42476 7.6046 1.96769 7.88636 1.52941 8.32464C1.07235 8.76918 0.77807 9.24503 0.546407 9.90246L0.371094 10.4034V19.169C0.371094 27.4838 0.377355 27.9534 0.483795 28.3416C0.859466 29.669 1.9176 30.7334 3.25124 31.1341C3.60186 31.2405 4.08397 31.2468 10.0759 31.2719C14.6716 31.2844 16.6689 31.2719 17.0258 31.2218C18.5598 31.0026 19.6993 30.0634 20.2378 28.5795C20.4006 28.135 20.4069 28.0849 20.4256 26.3568L20.4507 24.5974L22.2101 24.5724C23.9382 24.5536 23.9883 24.5473 24.4328 24.3846C25.8979 23.8524 26.8371 22.7253 27.075 21.2039C27.1251 20.8595 27.1376 18.5053 27.1251 12.2504C27.1063 4.28618 27.0938 3.74146 26.9874 3.39083C26.5929 2.06973 25.5473 1.02411 24.2262 0.629656C23.8755 0.523216 23.3997 0.516954 17.245 0.504433C11.9668 0.491911 10.558 0.504433 10.2324 0.573305ZM23.6627 3.35327C23.9632 3.49101 24.1573 3.69137 24.2888 3.99817C24.3702 4.20479 24.3827 5.18153 24.3827 12.5447C24.3827 20.5026 24.3764 20.872 24.2637 21.11C24.1323 21.398 23.8693 21.6609 23.6001 21.7736C23.4748 21.83 22.9239 21.8613 21.9283 21.8801L20.4382 21.9051V16.2763C20.4382 10.8729 20.4319 10.6225 20.3129 10.1592C20.0312 9.03841 19.2924 8.11176 18.3031 7.62339C17.414 7.18511 17.3577 7.17884 13.3067 7.17884H9.71903L9.74407 5.68868C9.76286 4.71194 9.80043 4.14218 9.85051 4.01695C9.95695 3.74772 10.2199 3.49101 10.5142 3.35327C10.7521 3.24057 11.0652 3.23431 17.0884 3.23431C23.1054 3.23431 23.4247 3.24057 23.6627 3.35327ZM17.0133 10.0527C17.4015 10.2406 17.6081 10.5536 17.6895 11.067C17.7271 11.3175 17.7459 14.4418 17.7333 19.5134C17.7208 25.9874 17.6958 27.5965 17.6332 27.7468C17.5142 28.016 17.2512 28.279 16.9632 28.4105C16.7253 28.5232 16.4122 28.5295 10.389 28.5295C4.37199 28.5295 4.05267 28.5232 3.81474 28.4105C3.5142 28.2727 3.32011 28.0724 3.18862 27.7656C3.10723 27.559 3.09471 26.5822 3.09471 19.2191C3.09471 11.3112 3.10097 10.8917 3.21367 10.6538C3.36394 10.322 3.72082 10.0152 4.0151 9.96507C4.14658 9.94002 4.28433 9.91498 4.31563 9.90246C4.3532 9.88993 7.15195 9.88367 10.5455 9.88993L16.7128 9.90246L17.0133 10.0527Z" fill="#FFC32B"/>
</svg>
