<svg width="26" height="25" viewBox="0 0 26 25" fill="none" xmlns="http://www.w3.org/2000/svg">
<path fill-rule="evenodd" clip-rule="evenodd" d="M13.1191 25C20.0227 25 25.6191 19.4036 25.6191 12.5C25.6191 5.59644 20.0227 0 13.1191 0C6.21558 0 0.619141 5.59644 0.619141 12.5C0.619141 19.4036 6.21558 25 13.1191 25ZM20.0443 9.68567C20.6301 9.09985 20.6301 8.15015 20.0443 7.56433C19.4585 6.97858 18.5088 6.97858 17.923 7.56433L11.2336 14.2537L8.31458 11.3346C7.72876 10.7488 6.77905 10.7488 6.19324 11.3346C5.60742 11.9204 5.60742 12.8701 6.19324 13.4559L10.173 17.4357L11.2336 18.4963L12.2943 17.4357L20.0443 9.68567Z" fill="#FFC42B"/>
</svg>
