<svg width="395" height="396" viewBox="0 0 395 396" fill="none" xmlns="http://www.w3.org/2000/svg">
<path fill-rule="evenodd" clip-rule="evenodd" d="M67.4634 0H82.3361V7.45455H89.7725V14.9091H97.2089V22.3636H104.645V29.8182H112.082V37.2727H97.2089V52.1818H89.7725V37.2727H82.3361V29.8182H60.027V22.3636H67.4634V14.9091H74.8998V7.45455H67.4634V0ZM89.7725 0H97.2089V7.45455H89.7725V0ZM119.518 0H126.954V7.45455H134.391V14.9091H141.827V29.8182H134.391V37.2727H126.954V22.3636H119.518V14.9091H112.082V22.3636H104.645V7.45455H119.518V0ZM141.827 0H149.263V14.9091H141.827V0ZM156.7 0H193.882V22.3636H208.754V29.8182H186.445V22.3636H179.009V7.45455H164.136V14.9091H156.7V0ZM201.318 0H216.191V7.45455H201.318V0ZM223.627 0H238.5V7.45455H260.809V14.9091H238.5V29.8182H231.063V37.2727H223.627V44.7273H216.191V22.3636H223.627V14.9091H231.063V7.45455H223.627V0ZM260.809 0H268.245V7.45455H260.809V0ZM275.682 0H283.118V7.45455H275.682V0ZM305.427 0H320.3V7.45455H327.736V22.3636H320.3V14.9091H305.427V22.3636H290.554V29.8182H283.118V37.2727H305.427V52.1818H312.863V29.8182H305.427V22.3636H320.3V59.6364H342.609V67.0909H327.736V74.5455H350.045V59.6364H357.482V89.4546H364.918V104.364H379.791V111.818H350.045V119.273H379.791V111.818H394.663V119.273H387.227V126.727H372.354V134.182H379.791V141.636H372.354V156.545H350.045V149.091H342.609V141.636H335.172V134.182H350.045V126.727H342.609V111.818H335.172V104.364H350.045V96.9091H320.3V104.364H312.863V96.9091H305.427V89.4546H312.863V82H320.3V74.5455H312.863V82H305.427V59.6364H297.991V44.7273H290.554V59.6364H297.991V74.5455H290.554V67.0909H283.118V44.7273H275.682V52.1818H268.245V44.7273H260.809V52.1818H268.245V59.6364H275.682V67.0909H253.372V44.7273H245.936V37.2727H275.682V29.8182H253.372V22.3636H260.809V14.9091H268.245V22.3636H275.682V14.9091H283.118V7.45455H290.554V14.9091H297.991V7.45455H305.427V0ZM342.609 82H350.045V89.4546H342.609V82ZM357.482 126.727H364.918V134.182H357.482V126.727ZM357.482 141.636H364.918V149.091H357.482V141.636ZM60.027 7.45455H67.4634V14.9091H60.027V7.45455ZM268.245 7.45455H275.682V14.9091H268.245V7.45455ZM112.082 22.3636H119.518V29.8182H112.082V22.3636ZM149.263 22.3636H156.7V29.8182H149.263V22.3636ZM327.736 22.3636H335.172V29.8182H327.736V22.3636ZM156.7 29.8182H179.009V37.2727H164.136V44.7273H156.7V29.8182ZM60.027 37.2727H74.8998V44.7273H67.4634V52.1818H60.027V37.2727ZM112.082 37.2727H126.954V52.1818H119.518V44.7273H112.082V37.2727ZM231.063 37.2727H238.5V44.7273H231.063V37.2727ZM74.8998 44.7273H82.3361V52.1818H74.8998V44.7273ZM104.645 44.7273H112.082V52.1818H104.645V44.7273ZM134.391 44.7273H141.827V52.1818H134.391V44.7273ZM149.263 44.7273H156.7V52.1818H149.263V44.7273ZM164.136 44.7273H171.572V52.1818H164.136V44.7273ZM223.627 44.7273H231.063V52.1818H238.5V44.7273H245.936V59.6364H216.191V52.1818H223.627V44.7273ZM327.736 44.7273H335.172V52.1818H327.736V44.7273ZM82.3361 52.1818H89.7725V59.6364H82.3361V52.1818ZM97.2089 52.1818H104.645V59.6364H97.2089V52.1818ZM126.954 52.1818H134.391V59.6364H141.827V67.0909H149.263V74.5455H156.7V67.0909H164.136V74.5455H179.009V82H164.136V89.4546H156.7V82H134.391V67.0909H126.954V52.1818ZM0.536133 59.6364H37.7179V67.0909H45.1543V74.5455H30.2816V67.0909H22.8452V89.4546H15.4089V74.5455H7.9725V67.0909H0.536133V59.6364ZM45.1543 59.6364H82.3361V96.9091H67.4634V89.4546H74.8998V74.5455H52.5907V67.0909H45.1543V59.6364ZM89.7725 59.6364H97.2089V67.0909H89.7725V59.6364ZM171.572 59.6364H179.009V67.0909H171.572V59.6364ZM364.918 59.6364H372.354V89.4546H364.918V59.6364ZM379.791 59.6364H387.227V67.0909H379.791V59.6364ZM97.2089 67.0909H104.645V74.5455H97.2089V67.0909ZM112.082 67.0909H119.518V74.5455H112.082V67.0909ZM179.009 67.0909H186.445V74.5455H179.009V67.0909ZM208.754 67.0909H231.063V74.5455H208.754V67.0909ZM387.227 67.0909H394.663V74.5455H387.227V67.0909ZM0.536133 74.5455H7.9725V89.4546H0.536133V74.5455ZM45.1543 74.5455H52.5907V82H45.1543V74.5455ZM89.7725 74.5455H97.2089V89.4546H104.645V96.9091H97.2089V104.364H82.3361V96.9091H89.7725V74.5455ZM186.445 74.5455H201.318V82H193.882V89.4546H201.318V96.9091H186.445V89.4546H179.009V82H186.445V74.5455ZM231.063 74.5455H238.5V82H231.063V74.5455ZM253.372 74.5455H275.682V82H283.118V104.364H290.554V111.818H283.118V119.273H275.682V111.818H268.245V104.364H275.682V96.9091H260.809V89.4546H268.245V82H253.372V74.5455ZM283.118 74.5455H290.554V82H283.118V74.5455ZM30.2816 82H45.1543V89.4546H52.5907V96.9091H37.7179V104.364H22.8452V96.9091H30.2816V82ZM60.027 82H67.4634V89.4546H60.027V82ZM104.645 82H119.518V89.4546H104.645V82ZM201.318 82H231.063V89.4546H223.627V96.9091H216.191V89.4546H201.318V82ZM238.5 82H253.372V89.4546H238.5V82ZM297.991 82H305.427V89.4546H297.991V82ZM379.791 82H387.227V96.9091H394.663V104.364H379.791V96.9091H372.354V89.4546H379.791V82ZM134.391 89.4546H156.7V96.9091H134.391V89.4546ZM171.572 89.4546H179.009V96.9091H186.445V104.364H179.009V111.818H164.136V119.273H156.7V104.364H171.572V89.4546ZM231.063 89.4546H238.5V96.9091H231.063V89.4546ZM60.027 96.9091H67.4634V104.364H60.027V96.9091ZM126.954 96.9091H134.391V104.364H126.954V96.9091ZM201.318 96.9091H216.191V104.364H201.318V96.9091ZM223.627 96.9091H231.063V104.364H223.627V96.9091ZM290.554 96.9091H305.427V119.273H297.991V104.364H290.554V96.9091ZM7.9725 104.364H22.8452V111.818H37.7179V119.273H52.5907V111.818H60.027V134.182H52.5907V126.727H45.1543V134.182H37.7179V141.636H22.8452V149.091H15.4089V141.636H7.9725V134.182H15.4089V119.273H0.536133V111.818H7.9725V104.364ZM22.8452 119.273H30.2816V126.727H22.8452V119.273ZM45.1543 104.364H52.5907V111.818H45.1543V104.364ZM97.2089 104.364H119.518V111.818H134.391V119.273H141.827V126.727H134.391V134.182H141.827V126.727H149.263V134.182H156.7V156.545H141.827V164H134.391V156.545H126.954V149.091H119.518V141.636H112.082V134.182H119.518V126.727H126.954V119.273H119.518V126.727H97.2089V119.273H104.645V111.818H97.2089V104.364ZM134.391 141.636H141.827V149.091H134.391V141.636ZM134.391 104.364H149.263V119.273H141.827V111.818H134.391V104.364ZM186.445 104.364H201.318V111.818H193.882V119.273H186.445V126.727H179.009V141.636H186.445V149.091H208.754V156.545H193.882V164H201.318V171.455H186.445V164H179.009V156.545H171.572V134.182H164.136V126.727H171.572V119.273H179.009V111.818H186.445V104.364ZM216.191 104.364H223.627V111.818H216.191V104.364ZM231.063 104.364H238.5V111.818H231.063V104.364ZM253.372 104.364H260.809V111.818H253.372V104.364ZM320.3 104.364H327.736V119.273H312.863V111.818H320.3V104.364ZM74.8998 111.818H97.2089V119.273H89.7725V141.636H104.645V156.545H112.082V164H97.2089V171.455H89.7725V149.091H82.3361V134.182H74.8998V126.727H82.3361V119.273H74.8998V111.818ZM223.627 111.818H231.063V119.273H223.627V111.818ZM238.5 111.818H245.936V119.273H238.5V111.818ZM67.4634 119.273H74.8998V126.727H67.4634V119.273ZM193.882 119.273H201.318V126.727H193.882V119.273ZM216.191 119.273H223.627V126.727H231.063V119.273H238.5V126.727H245.936V134.182H208.754V141.636H201.318V126.727H216.191V119.273ZM268.245 119.273H275.682V126.727H268.245V119.273ZM283.118 119.273H290.554V126.727H283.118V119.273ZM327.736 119.273H335.172V126.727H327.736V119.273ZM0.536133 126.727H7.9725V134.182H0.536133V126.727ZM186.445 126.727H193.882V134.182H186.445V126.727ZM260.809 126.727H268.245V134.182H260.809V126.727ZM275.682 126.727H283.118V134.182H297.991V141.636H320.3V134.182H327.736V141.636H335.172V149.091H342.609V164H335.172V156.545H327.736V149.091H320.3V164H312.863V156.545H305.427V149.091H297.991V156.545H290.554V141.636H283.118V149.091H275.682V141.636H268.245V134.182H275.682V126.727ZM297.991 126.727H320.3V134.182H297.991V126.727ZM387.227 126.727H394.663V134.182H387.227V126.727ZM45.1543 134.182H52.5907V141.636H45.1543V134.182ZM253.372 134.182H260.809V141.636H253.372V134.182ZM216.191 141.636H231.063V149.091H238.5V156.545H245.936V164H223.627V171.455H216.191V164H208.754V156.545H223.627V149.091H216.191V141.636ZM260.809 141.636H268.245V149.091H260.809V141.636ZM379.791 141.636H387.227V149.091H379.791V141.636ZM0.536133 149.091H7.9725V156.545H22.8452V149.091H30.2816V164H22.8452V178.909H30.2816V186.364H15.4089V178.909H0.536133V171.455H7.9725V164H0.536133V149.091ZM37.7179 149.091H52.5907V156.545H37.7179V149.091ZM74.8998 149.091H82.3361V156.545H74.8998V149.091ZM112.082 149.091H119.518V156.545H112.082V149.091ZM245.936 149.091H253.372V156.545H245.936V149.091ZM268.245 149.091H275.682V156.545H283.118V164H290.554V171.455H268.245V178.909H283.118V186.364H275.682V193.818H268.245V201.273H253.372V208.727H223.627V216.182H216.191V201.273H231.063V193.818H238.5V201.273H245.936V193.818H260.809V186.364H245.936V178.909H238.5V171.455H245.936V164H260.809V156.545H268.245V149.091ZM253.372 171.455H260.809V178.909H253.372V171.455ZM67.4634 156.545H74.8998V186.364H67.4634V156.545ZM156.7 156.545H164.136V164H156.7V156.545ZM297.991 156.545H305.427V164H297.991V156.545ZM372.354 156.545H387.227V164H379.791V171.455H372.354V156.545ZM37.7179 164H52.5907V171.455H37.7179V164ZM112.082 164H126.954V171.455H112.082V164ZM141.827 164H156.7V171.455H164.136V178.909H149.263V171.455H141.827V164ZM171.572 164H179.009V171.455H171.572V164ZM305.427 164H312.863V178.909H290.554V171.455H305.427V164ZM320.3 164H335.172V171.455H320.3V164ZM342.609 164H364.918V171.455H342.609V164ZM30.2816 171.455H37.7179V178.909H30.2816V171.455ZM52.5907 171.455H60.027V178.909H52.5907V171.455ZM82.3361 171.455H89.7725V178.909H97.2089V186.364H89.7725V201.273H82.3361V208.727H67.4634V193.818H82.3361V171.455ZM97.2089 171.455H104.645V178.909H97.2089V171.455ZM126.954 171.455H141.827V186.364H126.954V171.455ZM179.009 171.455H186.445V178.909H179.009V171.455ZM201.318 171.455H216.191V178.909H201.318V171.455ZM223.627 171.455H231.063V178.909H238.5V186.364H231.063V193.818H216.191V178.909H223.627V171.455ZM387.227 171.455H394.663V178.909H387.227V171.455ZM312.863 178.909H320.3V186.364H327.736V201.273H320.3V193.818H312.863V178.909ZM372.354 178.909H387.227V186.364H372.354V178.909ZM0.536133 186.364H15.4089V193.818H0.536133V186.364ZM97.2089 186.364H104.645V193.818H97.2089V186.364ZM112.082 186.364H119.518V193.818H112.082V186.364ZM141.827 186.364H149.263V193.818H141.827V186.364ZM156.7 186.364H171.572V193.818H179.009V201.273H171.572V208.727H164.136V201.273H156.7V186.364ZM238.5 186.364H245.936V193.818H238.5V186.364ZM290.554 186.364H305.427V193.818H297.991V201.273H283.118V223.636H268.245V238.545H260.809V231.091H253.372V238.545H238.5V231.091H245.936V223.636H260.809V216.182H268.245V208.727H275.682V193.818H290.554V186.364ZM387.227 186.364H394.663V193.818H387.227V186.364ZM22.8452 193.818H30.2816V201.273H22.8452V193.818ZM104.645 193.818H112.082V201.273H119.518V216.182H112.082V208.727H104.645V193.818ZM134.391 193.818H141.827V216.182H126.954V201.273H134.391V193.818ZM305.427 193.818H312.863V201.273H305.427V193.818ZM364.918 193.818H372.354V208.727H364.918V193.818ZM149.263 201.273H156.7V208.727H149.263V201.273ZM297.991 201.273H305.427V208.727H297.991V201.273ZM312.863 201.273H320.3V208.727H312.863V201.273ZM379.791 201.273H387.227V208.727H379.791V201.273ZM0.536133 208.727H7.9725V216.182H15.4089V223.636H22.8452V231.091H30.2816V223.636H22.8452V216.182H15.4089V208.727H30.2816V216.182H45.1543V223.636H37.7179V238.545H22.8452V246H15.4089V253.455H7.9725V246H0.536133V208.727ZM7.9725 231.091H15.4089V238.545H7.9725V231.091ZM82.3361 208.727H104.645V216.182H82.3361V208.727ZM253.372 208.727H260.809V216.182H253.372V208.727ZM320.3 208.727H327.736V216.182H335.172V231.091H357.482V238.545H350.045V246H342.609V238.545H320.3V231.091H312.863V223.636H297.991V216.182H320.3V208.727ZM52.5907 216.182H60.027V223.636H52.5907V216.182ZM67.4634 216.182H74.8998V223.636H82.3361V231.091H74.8998V238.545H60.027V223.636H67.4634V216.182ZM104.645 216.182H112.082V231.091H119.518V223.636H141.827V231.091H149.263V238.545H141.827V246H149.263V260.909H156.7V275.818H149.263V268.364H141.827V275.818H149.263V283.273H164.136V275.818H171.572V290.727H164.136V298.182H156.7V290.727H134.391V283.273H126.954V275.818H112.082V268.364H119.518V260.909H112.082V253.455H119.518V246H126.954V238.545H134.391V231.091H126.954V238.545H119.518V246H97.2089V238.545H104.645V231.091H97.2089V238.545H89.7725V246H97.2089V253.455H104.645V260.909H112.082V268.364H104.645V283.273H89.7725V268.364H97.2089V260.909H89.7725V253.455H82.3361V246H74.8998V238.545H82.3361V231.091H89.7725V223.636H104.645V216.182ZM126.954 253.455H141.827V260.909H134.391V268.364H126.954V253.455ZM141.827 216.182H149.263V223.636H141.827V216.182ZM156.7 216.182H164.136V223.636H156.7V216.182ZM171.572 216.182H179.009V223.636H171.572V216.182ZM186.445 216.182H201.318V231.091H193.882V238.545H186.445V231.091H179.009V223.636H186.445V216.182ZM223.627 216.182H238.5V231.091H231.063V223.636H223.627V216.182ZM342.609 216.182H379.791V231.091H364.918V223.636H342.609V216.182ZM387.227 216.182H394.663V223.636H387.227V216.182ZM45.1543 223.636H52.5907V231.091H45.1543V223.636ZM149.263 223.636H156.7V231.091H149.263V223.636ZM216.191 223.636H223.627V231.091H231.063V253.455H223.627V238.545H216.191V223.636ZM283.118 223.636H290.554V238.545H283.118V246H268.245V238.545H275.682V231.091H283.118V223.636ZM171.572 231.091H179.009V238.545H171.572V231.091ZM297.991 231.091H312.863V246H320.3V253.455H312.863V260.909H350.045V275.818H342.609V268.364H335.172V275.818H327.736V268.364H297.991V260.909H305.427V253.455H290.554V246H305.427V238.545H297.991V231.091ZM45.1543 238.545H52.5907V246H45.1543V238.545ZM149.263 238.545H156.7V246H149.263V238.545ZM179.009 238.545H186.445V246H179.009V238.545ZM208.754 238.545H216.191V246H208.754V238.545ZM253.372 238.545H260.809V246H253.372V238.545ZM372.354 238.545H387.227V246H379.791V253.455H372.354V238.545ZM30.2816 246H37.7179V253.455H30.2816V246ZM67.4634 246H74.8998V253.455H67.4634V246ZM156.7 246H179.009V253.455H156.7V246ZM186.445 246H208.754V253.455H223.627V260.909H208.754V268.364H201.318V260.909H193.882V275.818H186.445V246ZM238.5 246H245.936V253.455H238.5V246ZM260.809 246H268.245V253.455H260.809V246ZM357.482 246H364.918V253.455H357.482V246ZM387.227 246H394.663V253.455H387.227V246ZM0.536133 253.455H7.9725V260.909H15.4089V268.364H7.9725V283.273H15.4089V305.636H22.8452V313.091H15.4089V320.545H22.8452V328H7.9725V320.545H0.536133V313.091H7.9725V298.182H0.536133V253.455ZM15.4089 253.455H22.8452V260.909H15.4089V253.455ZM37.7179 253.455H67.4634V260.909H60.027V290.727H67.4634V298.182H52.5907V290.727H45.1543V283.273H52.5907V275.818H45.1543V268.364H52.5907V260.909H37.7179V253.455ZM245.936 253.455H260.809V268.364H253.372V283.273H260.809V268.364H275.682V275.818H268.245V290.727H245.936V283.273H238.5V275.818H245.936V268.364H238.5V260.909H245.936V253.455ZM268.245 253.455H275.682V260.909H268.245V253.455ZM283.118 253.455H290.554V260.909H283.118V253.455ZM364.918 253.455H372.354V268.364H357.482V260.909H364.918V253.455ZM30.2816 260.909H37.7179V275.818H30.2816V260.909ZM379.791 260.909H387.227V268.364H394.663V283.273H387.227V275.818H379.791V260.909ZM67.4634 268.364H82.3361V275.818H67.4634V268.364ZM216.191 268.364H231.063V283.273H238.5V290.727H223.627V298.182H238.5V320.545H245.936V328H238.5V335.455H231.063V328H223.627V335.455H231.063V342.909H216.191V320.545H201.318V313.091H193.882V305.636H201.318V298.182H208.754V305.636H216.191V290.727H193.882V283.273H201.318V275.818H208.754V283.273H216.191V268.364ZM223.627 313.091H231.063V320.545H223.627V313.091ZM283.118 268.364H290.554V275.818H283.118V268.364ZM15.4089 275.818H22.8452V283.273H15.4089V275.818ZM37.7179 275.818H45.1543V283.273H37.7179V275.818ZM275.682 275.818H283.118V283.273H275.682V275.818ZM297.991 275.818H305.427V283.273H297.991V275.818ZM312.863 275.818H327.736V283.273H312.863V275.818ZM335.172 275.818H342.609V283.273H335.172V275.818ZM357.482 275.818H379.791V290.727H372.354V298.182H379.791V305.636H372.354V313.091H364.918V320.545H372.354V328H357.482V320.545H350.045V305.636H357.482V298.182H350.045V305.636H342.609V313.091H327.736V305.636H335.172V298.182H312.863V290.727H327.736V283.273H335.172V290.727H350.045V283.273H357.482V290.727H364.918V283.273H357.482V275.818ZM22.8452 283.273H30.2816V290.727H22.8452V283.273ZM67.4634 283.273H74.8998V290.727H67.4634V283.273ZM82.3361 283.273H89.7725V290.727H82.3361V283.273ZM112.082 283.273H119.518V290.727H112.082V283.273ZM179.009 283.273H186.445V290.727H179.009V283.273ZM283.118 283.273H290.554V290.727H283.118V283.273ZM30.2816 290.727H37.7179V298.182H30.2816V290.727ZM74.8998 290.727H82.3361V298.182H74.8998V290.727ZM97.2089 290.727H104.645V298.182H97.2089V290.727ZM119.518 290.727H126.954V298.182H119.518V290.727ZM171.572 290.727H179.009V298.182H171.572V290.727ZM238.5 290.727H245.936V298.182H238.5V290.727ZM275.682 290.727H283.118V298.182H275.682V290.727ZM290.554 290.727H305.427V298.182H297.991V313.091H290.554V305.636H283.118V298.182H290.554V290.727ZM387.227 290.727H394.663V298.182H387.227V290.727ZM22.8452 298.182H30.2816V305.636H22.8452V298.182ZM37.7179 298.182H52.5907V305.636H45.1543V313.091H52.5907V305.636H74.8998V313.091H60.027V320.545H22.8452V313.091H37.7179V298.182ZM82.3361 298.182H97.2089V305.636H89.7725V313.091H82.3361V298.182ZM112.082 298.182H119.518V313.091H112.082V298.182ZM126.954 298.182H141.827V305.636H149.263V313.091H141.827V320.545H126.954V313.091H134.391V305.636H126.954V298.182ZM179.009 298.182H186.445V305.636H179.009V298.182ZM260.809 298.182H275.682V305.636H260.809V298.182ZM305.427 298.182H312.863V305.636H320.3V313.091H305.427V298.182ZM97.2089 305.636H104.645V313.091H112.082V320.545H89.7725V313.091H97.2089V305.636ZM156.7 305.636H179.009V313.091H156.7V305.636ZM245.936 305.636H253.372V313.091H245.936V305.636ZM275.682 305.636H283.118V313.091H275.682V305.636ZM379.791 305.636H394.663V313.091H379.791V305.636ZM74.8998 313.091H82.3361V320.545H74.8998V313.091ZM179.009 313.091H186.445V320.545H179.009V313.091ZM253.372 313.091H260.809V320.545H253.372V313.091ZM268.245 313.091H275.682V320.545H268.245V313.091ZM283.118 313.091H290.554V320.545H283.118V313.091ZM149.263 320.545H156.7V335.455H134.391V328H149.263V320.545ZM164.136 320.545H179.009V328H164.136V320.545ZM186.445 320.545H193.882V328H186.445V320.545ZM275.682 320.545H283.118V335.455H268.245V342.909H260.809V328H275.682V320.545ZM297.991 320.545H335.172V328H320.3V342.909H312.863V335.455H305.427V328H297.991V320.545ZM342.609 320.545H350.045V328H342.609V320.545ZM379.791 320.545H387.227V328H379.791V320.545ZM22.8452 328H30.2816V335.455H22.8452V328ZM45.1543 328H82.3361V335.455H89.7725V342.909H74.8998V335.455H67.4634V342.909H74.8998V350.364H60.027V335.455H45.1543V328ZM104.645 328H126.954V335.455H112.082V372.727H104.645V365.273H67.4634V380.182H89.7725V372.727H97.2089V380.182H112.082V372.727H126.954V387.636H119.518V395.091H112.082V387.636H104.645V395.091H89.7725V387.636H67.4634V395.091H60.027V357.818H74.8998V350.364H89.7725V342.909H97.2089V357.818H104.645V342.909H97.2089V335.455H104.645V328ZM372.354 328H379.791V335.455H372.354V328ZM387.227 328H394.663V342.909H387.227V328ZM126.954 335.455H134.391V350.364H119.518V342.909H126.954V335.455ZM156.7 335.455H179.009V357.818H171.572V342.909H164.136V350.364H156.7V335.455ZM238.5 335.455H253.372V342.909H238.5V335.455ZM290.554 335.455H305.427V342.909H290.554V335.455ZM364.918 335.455H372.354V342.909H379.791V350.364H372.354V357.818H387.227V365.273H379.791V372.727H372.354V365.273H364.918V335.455ZM231.063 342.909H238.5V350.364H231.063V342.909ZM253.372 342.909H260.809V350.364H268.245V357.818H275.682V350.364H283.118V372.727H290.554V380.182H297.991V387.636H290.554V395.091H283.118V387.636H275.682V380.182H268.245V372.727H275.682V365.273H268.245V372.727H260.809V357.818H253.372V342.909ZM268.245 342.909H275.682V350.364H268.245V342.909ZM283.118 342.909H290.554V350.364H283.118V342.909ZM305.427 342.909H312.863V350.364H305.427V342.909ZM320.3 342.909H327.736V365.273H335.172V372.727H327.736V380.182H320.3V372.727H312.863V365.273H305.427V357.818H312.863V350.364H320.3V342.909ZM134.391 350.364H156.7V365.273H149.263V357.818H141.827V365.273H149.263V372.727H126.954V357.818H134.391V350.364ZM223.627 350.364H231.063V357.818H223.627V350.364ZM238.5 350.364H245.936V357.818H238.5V350.364ZM297.991 350.364H305.427V357.818H297.991V350.364ZM231.063 357.818H238.5V365.273H245.936V372.727H238.5V380.182H231.063V372.727H216.191V380.182H201.318V365.273H231.063V357.818ZM164.136 365.273H179.009V387.636H186.445V395.091H171.572V387.636H156.7V372.727H164.136V365.273ZM186.445 365.273H193.882V372.727H186.445V365.273ZM350.045 365.273H357.482V372.727H364.918V380.182H357.482V387.636H364.918V395.091H335.172V380.182H342.609V387.636H350.045V365.273ZM253.372 372.727H260.809V380.182H253.372V372.727ZM297.991 372.727H312.863V380.182H297.991V372.727ZM387.227 372.727H394.663V380.182H387.227V372.727ZM134.391 380.182H141.827V395.091H126.954V387.636H134.391V380.182ZM186.445 380.182H193.882V387.636H186.445V380.182ZM216.191 380.182H231.063V387.636H223.627V395.091H216.191V380.182ZM245.936 380.182H253.372V387.636H245.936V380.182ZM312.863 380.182H320.3V387.636H312.863V380.182ZM364.918 380.182H372.354V387.636H364.918V380.182ZM379.791 380.182H387.227V387.636H379.791V380.182ZM149.263 387.636H156.7V395.091H149.263V387.636ZM193.882 387.636H201.318V395.091H193.882V387.636ZM231.063 387.636H238.5V395.091H231.063V387.636ZM253.372 387.636H275.682V395.091H253.372V387.636ZM320.3 387.636H327.736V395.091H320.3V387.636Z" fill="#FFC42B"/>
<path fill-rule="evenodd" clip-rule="evenodd" d="M0.536133 0H52.5907V52.1818H0.536133V0ZM7.9725 7.45455H45.1543V44.7273H7.9725V7.45455ZM15.4089 14.9091H37.7179V37.2727H15.4089V14.9091ZM342.609 0H394.663V52.1818H342.609V0ZM350.045 7.45455H387.227V44.7273H350.045V7.45455ZM357.482 14.9091H379.791V37.2727H357.482V14.9091ZM0.536133 342.909H52.5907V395.091H0.536133V342.909ZM7.9725 350.364H45.1543V387.636H7.9725V350.364ZM15.4089 357.818H37.7179V380.182H15.4089V357.818ZM30.2816 178.909H67.4634V216.182H30.2816V178.909ZM37.7179 186.364H60.027V208.727H37.7179V186.364ZM45.1543 193.818H52.5907V201.273H45.1543V193.818ZM179.009 29.8182H216.191V67.0909H179.009V29.8182ZM186.445 37.2727H208.754V59.6364H186.445V37.2727ZM193.882 44.7273H201.318V52.1818H193.882V44.7273ZM179.009 178.909H216.191V216.182H179.009V178.909ZM186.445 186.364H208.754V208.727H186.445V186.364ZM193.882 193.818H201.318V201.273H193.882V193.818ZM179.009 328H216.191V365.273H179.009V328ZM186.445 335.455H208.754V357.818H186.445V335.455ZM193.882 342.909H201.318V350.364H193.882V342.909ZM327.736 178.909H364.918V216.182H327.736V178.909ZM335.172 186.364H357.482V208.727H335.172V186.364ZM342.609 193.818H350.045V201.273H342.609V193.818ZM327.736 328H364.918V365.273H327.736V328ZM335.172 335.455H357.482V357.818H335.172V335.455ZM342.609 342.909H350.045V350.364H342.609V342.909Z" fill="#FFC42B"/>
</svg>
